<svg width="96" height="20" viewBox="0 0 96 20" fill="none" xmlns="http://www.w3.org/2000/svg">
<g clip-path="url(#clip0_201_1751)">
<path d="M5.04088 5.24609H0.123047V10.1639H5.04088V5.24609Z" fill="#7B2CBF"/>
<path d="M4.91783 15.082H0V19.9999H4.91783V15.082Z" fill="#7B2CBF"/>
<path d="M9.71275 10.1641H4.79492V15.0819H9.71275V10.1641Z" fill="#7B2CBF"/>
<path d="M28.8738 13.5495V17.4415L26.4164 19.8999H17.6653L15.3242 17.5588L17.8706 15.0124L19.5966 16.7394H24.0743L24.7188 16.0949V14.72L24.221 14.2223L18.0497 13.8176L15.8554 11.6222V7.81827L18.3138 5.35986H26.3911L28.6168 7.58558L26.0704 10.132L24.4608 8.52241H20.6568L20.0124 9.16584V10.4537L20.5101 10.9515L26.6815 11.3562L28.8738 13.5495Z" fill="#333333"/>
<path d="M36.6877 8.74963V15.276L37.9169 16.5052H40.8144V19.8975H35.5465L32.5317 16.8826V8.74963H29.3418V5.3554H32.7664L33.4098 -0.000488281H36.6877V5.3554H40.8144V8.74963H36.6877Z" fill="#333333"/>
<path d="M55.3873 7.98887V19.8975H51.6997L51.6127 17.4391L49.1543 19.8975H44.3842L41.9258 17.4391V13.6958L44.1201 11.5015L51.2323 11.033V9.45279L50.2955 8.51595H46.5522L44.7383 10.3309L42.1918 7.7845L44.6199 5.35645H52.7559L55.3873 7.98887ZM49.1836 16.74L51.2323 14.6913V13.7262L46.7252 14.0185L46.0808 14.663V16.0379L46.7839 16.741L49.1836 16.74Z" fill="#333333"/>
<path d="M70.5787 7.98887V19.8975H66.8911L66.8041 17.4391L64.3457 19.8975H59.5756L57.1172 17.4391V13.6958L59.3136 11.5004L66.4258 11.032V9.45279L65.4849 8.51595H61.7416L59.9277 10.3309L57.3812 7.7845L59.8093 5.35645H67.9453L70.5787 7.98887ZM64.372 16.74L66.4207 14.6913V13.7262L61.9136 14.0185L61.2692 14.663V16.0379L61.9723 16.741L64.372 16.74Z" fill="#333333"/>
<path d="M82.7512 5.35498V9.24695H78.9463L77.3367 10.8566V19.897H73.1816V5.35498H76.8693L76.9856 8.07643L79.7081 5.35498H82.7512Z" fill="#333333"/>
<path d="M91.7931 8.74963V15.276L93.0223 16.5052H95.9198V19.8975H90.6519L87.6371 16.8826V8.74963H84.4472V5.3554H87.8718L88.5152 -0.000488281H91.7931V5.3554H95.9198V8.74963H91.7931Z" fill="#333333"/>
</g>
<defs>
<clipPath id="clip0_201_1751">
<rect width="96" height="20" fill="white"/>
</clipPath>
</defs>
</svg>
